<svg width="32" height="30" viewBox="0 0 32 30" fill="none" xmlns="http://www.w3.org/2000/svg">
<g id="Frame">
<path id="Vector" d="M27.5381 26.3135H22.6497V18.88C22.6497 17.1073 22.618 14.8261 20.1057 14.8261C17.5936 14.8261 17.171 16.7562 17.171 18.7507V26.3135H12.2827V11.0279H16.9742V13.1181H17.0378C17.5068 12.3399 18.1869 11.6965 19.003 11.2639C19.8192 10.8284 20.7396 10.6177 21.6686 10.6514C26.6234 10.6514 27.5381 13.8148 27.5381 17.9305V26.3135Z" fill="white"/>
<path id="Vector_2" d="M6.76632 8.94072C6.20485 8.94072 5.65784 8.78059 5.18898 8.47719C4.72301 8.17378 4.35835 7.74395 4.14417 7.24107C3.92711 6.7382 3.87212 6.18195 3.98211 5.64818C4.09208 5.11441 4.36124 4.62277 4.75775 4.23789C5.15425 3.85301 5.66073 3.59174 6.21064 3.48499C6.76053 3.37823 7.33069 3.43442 7.84876 3.64231C8.36681 3.8502 8.80963 4.20417 9.1222 4.65648C9.43477 5.10878 9.59975 5.64256 9.59975 6.18756C9.59975 6.91799 9.30164 7.61753 8.7691 8.13445C8.23657 8.65136 7.51592 8.94072 6.76343 8.94072H6.76632Z" fill="white"/>
<path id="Vector_3" d="M9.20903 11.0278H4.31494V26.3106H9.20903V11.0278Z" fill="white"/>
</g>
</svg>
