<svg width="32" height="30" viewBox="0 0 32 30" fill="none" xmlns="http://www.w3.org/2000/svg">
<g id="Frame">
<path id="Vector" d="M29.5092 7.00936C28.548 7.42757 27.5219 7.70637 26.4438 7.83311C27.5479 7.18679 28.3922 6.17296 28.7818 4.95637C27.7556 5.55199 26.6127 5.98286 25.3916 6.22364C24.4175 5.20982 23.0407 4.57617 21.495 4.57617C18.5464 4.57617 16.1695 6.90798 16.1695 9.77204C16.1695 10.1776 16.2214 10.5704 16.3123 10.9633C11.8831 10.7479 7.96037 8.68218 5.32359 5.52665C4.86897 6.29968 4.59621 7.18679 4.59621 8.13725C4.59621 9.9368 5.53142 11.5336 6.97321 12.4714C6.10294 12.446 5.27163 12.2052 4.55723 11.825C4.55723 11.8504 4.55723 11.8631 4.55723 11.8884C4.55723 14.4102 6.3887 16.514 8.83063 16.9829C8.38901 17.097 7.90842 17.1604 7.42782 17.1604C7.0901 17.1604 6.75239 17.1223 6.42766 17.0716C7.10309 19.1373 9.07743 20.6454 11.4025 20.6834C9.58401 22.0774 7.28494 22.9138 4.77805 22.9138C4.34941 22.9138 3.92077 22.8884 3.50513 22.8378C5.86913 24.3078 8.66178 25.1695 11.6752 25.1695C21.482 25.1695 26.8335 17.249 26.8335 10.3803C26.8335 10.1522 26.8335 9.9368 26.8204 9.70869C27.8856 8.97365 28.7948 8.06121 29.5092 7.00936Z" fill="white"/>
</g>
</svg>
