<svg width="32" height="31" viewBox="0 0 32 31" fill="none" xmlns="http://www.w3.org/2000/svg">
<g id="youtube">
<mask id="mask0_80_108" style="mask-type:luminance" maskUnits="userSpaceOnUse" x="0" y="0" width="32" height="31">
<g id="clip0_1613_31350">
<path id="Vector" d="M32 0H0V31H32V0Z" fill="white"/>
</g>
</mask>
<g mask="url(#mask0_80_108)">
<g id="Group">
<path id="Vector_2" d="M15.9999 26.2842C15.0285 26.2842 6.48 26.262 4.09143 25.6309C2.42286 25.1881 1.10857 23.8927 0.662853 22.2542C-4.1494e-08 19.8517 0 15.1131 0 14.9138C0 14.7146 -4.1494e-08 9.96487 0.662853 7.57345C1.09714 5.95701 2.41143 4.67272 4.09143 4.22987C6.48 3.59879 15.0285 3.57666 15.9999 3.57666C16.9715 3.57666 25.52 3.59879 27.9086 4.22987C29.5886 4.67272 30.9029 5.95701 31.3372 7.57345C31.9887 9.97595 32.0001 14.7146 32.0001 14.9138C32.0001 15.1131 32.0001 19.8517 31.3372 22.2542C30.8915 23.9038 29.5772 25.1992 27.9086 25.642C25.5086 26.2731 16.9601 26.2952 15.9999 26.2952V26.2842ZM15.9999 5.79094C13.4629 5.79094 6.46857 5.89058 4.69715 6.36665C3.7943 6.61023 3.10857 7.26344 2.86858 8.13808C2.29715 10.2638 2.28572 14.8695 2.28572 14.9138C2.28572 14.9582 2.28572 19.5748 2.86858 21.6895C3.10857 22.5752 3.80571 23.2616 4.68572 23.4942C6.46857 23.9703 13.4515 24.0698 15.9999 24.0698C18.5486 24.0698 25.5314 23.9703 27.3143 23.4942C28.2058 23.2616 28.9029 22.5642 29.1315 21.6895C29.7029 19.5638 29.7143 14.9582 29.7143 14.9138C29.7143 14.8695 29.7143 10.2527 29.1315 8.13808C28.8915 7.27452 28.2172 6.61023 27.3143 6.37773C25.5314 5.90165 18.5486 5.80202 15.9999 5.80202V5.79094Z" fill="white"/>
<path id="Vector_3" d="M12.96 19.243L20.72 14.903L12.96 10.563V19.243Z" fill="white"/>
</g>
</g>
</g>
</svg>
