<svg width="33" height="48" viewBox="0 0 33 48" fill="none" xmlns="http://www.w3.org/2000/svg">
<path d="M20.1574 44.125H14.4589C14.3294 44.125 14.2052 44.1777 14.1136 44.2714C14.022 44.3652 13.9706 44.4924 13.9706 44.625C13.9706 44.7576 14.022 44.8848 14.1136 44.9786C14.2052 45.0723 14.3294 45.125 14.4589 45.125H20.1574C20.2869 45.125 20.4112 45.0723 20.5027 44.9786C20.5943 44.8848 20.6458 44.7576 20.6458 44.625C20.6458 44.4924 20.5943 44.3652 20.5027 44.2714C20.4112 44.1777 20.2869 44.125 20.1574 44.125Z" fill="black"/>
<path d="M32.5117 21.1H31.4276V2.335C31.4276 2.02836 31.3687 1.72473 31.2541 1.44143C31.1395 1.15814 30.9715 0.90073 30.7597 0.683906C30.548 0.467081 30.2966 0.295086 30.0199 0.177741C29.7432 0.0603966 29.4467 0 29.1472 0H5.38606C4.78126 0 4.20123 0.246008 3.77357 0.683906C3.34591 1.1218 3.10565 1.71572 3.10565 2.335V6.5H0.56644C0.436932 6.5 0.312728 6.55268 0.221152 6.64645C0.129576 6.74021 0.0781295 6.86739 0.0781295 7V24C0.0781295 24.1326 0.129576 24.2598 0.221152 24.3536C0.312728 24.4473 0.436932 24.5 0.56644 24.5H3.10565V28.965H0.48831C0.358802 28.965 0.234598 29.0177 0.143022 29.1114C0.0514464 29.2052 0 29.3324 0 29.465V37.375C0 37.5076 0.0514464 37.6348 0.143022 37.7286C0.234598 37.8223 0.358802 37.875 0.48831 37.875H3.10565V45.665C3.10565 46.2843 3.34591 46.8782 3.77357 47.3161C4.20123 47.754 4.78126 48 5.38606 48H29.1472C29.4467 48 29.7432 47.9396 30.0199 47.8223C30.2966 47.7049 30.548 47.5329 30.7597 47.3161C30.9715 47.0993 31.1395 46.8419 31.2541 46.5586C31.3687 46.2753 31.4276 45.9716 31.4276 45.665V30.035H32.5117C32.6412 30.035 32.7654 29.9823 32.857 29.8886C32.9486 29.7948 33 29.6676 33 29.535V21.6C33 21.4674 32.9486 21.3402 32.857 21.2464C32.7654 21.1527 32.6412 21.1 32.5117 21.1ZM4.08227 2.335C4.08356 1.98134 4.22133 1.64254 4.46556 1.39247C4.70979 1.14239 5.04067 1.00132 5.38606 1H29.1472C29.4926 1.00132 29.8235 1.14239 30.0677 1.39247C30.312 1.64254 30.4497 1.98134 30.451 2.335V3.26C30.0708 2.98173 29.6146 2.83305 29.1472 2.835H5.38606C4.91867 2.83305 4.46254 2.98173 4.08227 3.26V2.335ZM1.05475 7.5H13.9706V15.115L12.3835 13.5C12.3382 13.4531 12.2841 13.4159 12.2246 13.3906C12.1651 13.3652 12.1013 13.3521 12.0368 13.3521C11.9724 13.3521 11.9086 13.3652 11.8491 13.3906C11.7895 13.4159 11.7355 13.4531 11.6901 13.5L10.2252 15L7.50044 12.175C7.40895 12.0819 7.28519 12.0296 7.15618 12.0296C7.02718 12.0296 6.90342 12.0819 6.81193 12.175L1.05475 18.075V7.5ZM13.9706 18.785L10.9186 15.68L12.0222 14.55L13.9754 16.55L13.9706 18.785ZM1.05475 23.5V19.5L7.16351 13.25L13.9706 20.2V23.5H1.05475ZM0.97662 36.895V29.945H14.0536V36.875L0.97662 36.895ZM30.451 45.665C30.4497 46.0187 30.312 46.3575 30.0677 46.6075C29.8235 46.8576 29.4926 46.9987 29.1472 47H5.38606C5.04067 46.9987 4.70979 46.8576 4.46556 46.6075C4.22133 46.3575 4.08356 46.0187 4.08227 45.665V42C4.46414 42.2744 4.91955 42.4211 5.38606 42.42H29.1472C29.6137 42.4211 30.0692 42.2744 30.451 42V45.665ZM30.451 40.085C30.4497 40.4382 30.3118 40.7765 30.0674 41.0258C29.8231 41.275 29.4922 41.415 29.1472 41.415H5.38606C5.04112 41.415 4.71023 41.275 4.46587 41.0258C4.2215 40.7765 4.08356 40.4382 4.08227 40.085V37.875H14.5419C14.6714 37.875 14.7956 37.8223 14.8872 37.7286C14.9787 37.6348 15.0302 37.5076 15.0302 37.375V29.445C15.0302 29.3124 14.9787 29.1852 14.8872 29.0914C14.7956 28.9977 14.6714 28.945 14.5419 28.945H4.08227V24.5H14.4589C14.5884 24.5 14.7126 24.4473 14.8042 24.3536C14.8957 24.2598 14.9472 24.1326 14.9472 24V7C14.9472 6.86739 14.8957 6.74021 14.8042 6.64645C14.7126 6.55268 14.5884 6.5 14.4589 6.5H4.08227V5.165C4.08356 4.8118 4.2215 4.47352 4.46587 4.22424C4.71023 3.97496 5.04112 3.835 5.38606 3.835H29.1472C29.4922 3.835 29.8231 3.97496 30.0674 4.22424C30.3118 4.47352 30.4497 4.8118 30.451 5.165V21.1H18.4581C18.3286 21.1 18.2044 21.1527 18.1128 21.2464C18.0213 21.3402 17.9698 21.4674 17.9698 21.6V29.535C17.9698 29.6676 18.0213 29.7948 18.1128 29.8886C18.2044 29.9823 18.3286 30.035 18.4581 30.035H30.451V40.085ZM32.0234 29.035H18.9464V22.1H32.0234V29.035Z" fill="black"/>
<path d="M23.2094 14.835C23.757 14.835 24.2923 14.6687 24.7476 14.3572C25.2029 14.0457 25.5578 13.6029 25.7673 13.0849C25.9769 12.5669 26.0317 11.9969 25.9249 11.4469C25.8181 10.897 25.5544 10.3918 25.1672 9.99535C24.7799 9.59887 24.2866 9.32886 23.7495 9.21947C23.2125 9.11008 22.6558 9.16623 22.1498 9.3808C21.6439 9.59538 21.2115 9.95875 20.9073 10.425C20.603 10.8912 20.4407 11.4393 20.4407 12C20.442 12.7515 20.7341 13.4718 21.253 14.0032C21.772 14.5346 22.4755 14.8337 23.2094 14.835ZM23.2094 10.165C23.5638 10.165 23.9103 10.2726 24.205 10.4743C24.4997 10.6759 24.7294 10.9625 24.8651 11.2978C25.0007 11.6331 25.0362 12.002 24.967 12.358C24.8979 12.7139 24.7272 13.0409 24.4766 13.2975C24.226 13.5542 23.9066 13.7289 23.559 13.7997C23.2114 13.8705 22.851 13.8342 22.5236 13.6953C22.1961 13.5564 21.9162 13.3212 21.7193 13.0195C21.5224 12.7177 21.4173 12.3629 21.4173 12C21.4173 11.5133 21.6061 11.0466 21.9422 10.7025C22.2783 10.3583 22.7341 10.165 23.2094 10.165Z" fill="black"/>
<path d="M20.2795 17.415V16.96H26.1392V17.415C26.1392 17.5476 26.1907 17.6748 26.2823 17.7686C26.3738 17.8623 26.498 17.915 26.6276 17.915H28.4978C28.6273 17.915 28.7515 17.8623 28.8431 17.7686C28.9346 17.6748 28.9861 17.5476 28.9861 17.415V15.5C28.9861 15.3674 28.9346 15.2402 28.8431 15.1464C28.7515 15.0527 28.6273 15 28.4978 15H28.0485V9H28.4978C28.6273 9 28.7515 8.94732 28.8431 8.85355C28.9346 8.75979 28.9861 8.63261 28.9861 8.5V6.585C28.9861 6.45239 28.9346 6.32521 28.8431 6.23145C28.7515 6.13768 28.6273 6.085 28.4978 6.085H26.6276C26.498 6.085 26.3738 6.13768 26.2823 6.23145C26.1907 6.32521 26.1392 6.45239 26.1392 6.585V7.04H20.2795V6.585C20.2795 6.45239 20.2281 6.32521 20.1365 6.23145C20.0449 6.13768 19.9207 6.085 19.7912 6.085H17.9161C17.7866 6.085 17.6624 6.13768 17.5708 6.23145C17.4792 6.32521 17.4278 6.45239 17.4278 6.585V8.5C17.4278 8.63261 17.4792 8.75979 17.5708 8.85355C17.6624 8.94732 17.7866 9 17.9161 9H18.3653V15H17.9161C17.7866 15 17.6624 15.0527 17.5708 15.1464C17.4792 15.2402 17.4278 15.3674 17.4278 15.5V17.415C17.4278 17.5476 17.4792 17.6748 17.5708 17.7686C17.6624 17.8623 17.7866 17.915 17.9161 17.915H19.7912C19.9207 17.915 20.0449 17.8623 20.1365 17.7686C20.2281 17.6748 20.2795 17.5476 20.2795 17.415ZM28.0095 16.915H27.1159V16H28.0095V16.915ZM28.0095 7.085V8H27.1159V7.085H28.0095ZM18.4044 7.085H19.3029V8H18.4044V7.085ZM19.342 9H19.7912C19.9207 9 20.0449 8.94732 20.1365 8.85355C20.2281 8.75979 20.2795 8.63261 20.2795 8.5V8.04H26.1392V8.5C26.1392 8.63261 26.1907 8.75979 26.2823 8.85355C26.3738 8.94732 26.498 9 26.6276 9H27.0719V15H26.6276C26.498 15 26.3738 15.0527 26.2823 15.1464C26.1907 15.2402 26.1392 15.3674 26.1392 15.5V15.96H20.2795V15.5C20.2795 15.3674 20.2281 15.2402 20.1365 15.1464C20.0449 15.0527 19.9207 15 19.7912 15H19.342V9ZM18.4044 16.915V16H19.3029V16.915H18.4044ZM5.5472 21.58H9.45368C9.58319 21.58 9.7074 21.5273 9.79897 21.4336C9.89055 21.3398 9.94199 21.2126 9.94199 21.08C9.94199 20.9474 9.89055 20.8202 9.79897 20.7264C9.7074 20.6327 9.58319 20.58 9.45368 20.58H5.5472C5.4177 20.58 5.29349 20.6327 5.20192 20.7264C5.11034 20.8202 5.05889 20.9474 5.05889 21.08C5.05889 21.2126 5.11034 21.3398 5.20192 21.4336C5.29349 21.5273 5.4177 21.58 5.5472 21.58ZM30.0555 23.57H20.9192C20.7897 23.57 20.6655 23.6227 20.5739 23.7164C20.4823 23.8102 20.4309 23.9374 20.4309 24.07C20.4309 24.2026 20.4823 24.3298 20.5739 24.4236C20.6655 24.5173 20.7897 24.57 20.9192 24.57H30.0555C30.185 24.57 30.3092 24.5173 30.4008 24.4236C30.4924 24.3298 30.5438 24.2026 30.5438 24.07C30.5438 23.9374 30.4924 23.8102 30.4008 23.7164C30.3092 23.6227 30.185 23.57 30.0555 23.57ZM24.5913 26.445H20.9192C20.7897 26.445 20.6655 26.4977 20.5739 26.5914C20.4823 26.6852 20.4309 26.8124 20.4309 26.945C20.4309 27.0776 20.4823 27.2048 20.5739 27.2986C20.6655 27.3923 20.7897 27.445 20.9192 27.445H24.5913C24.7208 27.445 24.845 27.3923 24.9366 27.2986C25.0282 27.2048 25.0796 27.0776 25.0796 26.945C25.0796 26.8124 25.0282 26.6852 24.9366 26.5914C24.845 26.4977 24.7208 26.445 24.5913 26.445ZM30.0555 26.445H26.8473C26.7178 26.445 26.5936 26.4977 26.502 26.5914C26.4104 26.6852 26.359 26.8124 26.359 26.945C26.359 27.0776 26.4104 27.2048 26.502 27.2986C26.5936 27.3923 26.7178 27.445 26.8473 27.445H30.0555C30.185 27.445 30.3092 27.3923 30.4008 27.2986C30.4924 27.2048 30.5438 27.0776 30.5438 26.945C30.5438 26.8124 30.4924 26.6852 30.4008 26.5914C30.3092 26.4977 30.185 26.445 30.0555 26.445ZM2.94451 32.41H12.0808C12.2103 32.41 12.3345 32.3573 12.4261 32.2636C12.5177 32.1698 12.5691 32.0426 12.5691 31.91C12.5691 31.7774 12.5177 31.6502 12.4261 31.5564C12.3345 31.4627 12.2103 31.41 12.0808 31.41H2.94451C2.815 31.41 2.6908 31.4627 2.59922 31.5564C2.50765 31.6502 2.4562 31.7774 2.4562 31.91C2.4562 32.0426 2.50765 32.1698 2.59922 32.2636C2.6908 32.3573 2.815 32.41 2.94451 32.41ZM6.6166 35.285C6.74611 35.285 6.87031 35.2323 6.96189 35.1386C7.05346 35.0448 7.10491 34.9176 7.10491 34.785C7.10491 34.6524 7.05346 34.5252 6.96189 34.4314C6.87031 34.3377 6.74611 34.285 6.6166 34.285H2.94451C2.815 34.285 2.6908 34.3377 2.59922 34.4314C2.50765 34.5252 2.4562 34.6524 2.4562 34.785C2.4562 34.9176 2.50765 35.0448 2.59922 35.1386C2.6908 35.2323 2.815 35.285 2.94451 35.285H6.6166ZM12.0808 34.285H8.87748C8.74797 34.285 8.62377 34.3377 8.53219 34.4314C8.44061 34.5252 8.38917 34.6524 8.38917 34.785C8.38917 34.9176 8.44061 35.0448 8.53219 35.1386C8.62377 35.2323 8.74797 35.285 8.87748 35.285H12.0808C12.2103 35.285 12.3345 35.2323 12.4261 35.1386C12.5177 35.0448 12.5691 34.9176 12.5691 34.785C12.5691 34.6524 12.5177 34.5252 12.4261 34.4314C12.3345 34.3377 12.2103 34.285 12.0808 34.285ZM17.9698 35.275V37.375C17.9698 37.5076 18.0213 37.6348 18.1128 37.7286C18.2044 37.8223 18.3286 37.875 18.4581 37.875C18.5876 37.875 18.7118 37.8223 18.8034 37.7286C18.895 37.6348 18.9464 37.5076 18.9464 37.375V36.825H28.4978V37.375C28.4978 37.5076 28.5492 37.6348 28.6408 37.7286C28.7324 37.8223 28.8566 37.875 28.9861 37.875C29.1156 37.875 29.2398 37.8223 29.3314 37.7286C29.423 37.6348 29.4744 37.5076 29.4744 37.375V35.275C29.4744 35.1424 29.423 35.0152 29.3314 34.9214C29.2398 34.8277 29.1156 34.775 28.9861 34.775C28.8566 34.775 28.7324 34.8277 28.6408 34.9214C28.5492 35.0152 28.4978 35.1424 28.4978 35.275V35.825H18.9464V35.275C18.9464 35.1424 18.895 35.0152 18.8034 34.9214C18.7118 34.8277 18.5876 34.775 18.4581 34.775C18.3286 34.775 18.2044 34.8277 18.1128 34.9214C18.0213 35.0152 17.9698 35.1424 17.9698 35.275Z" fill="black"/>
</svg>
