<svg width="50" height="50" viewBox="0 0 50 50" fill="none" xmlns="http://www.w3.org/2000/svg">
<path d="M7.42891 17.9688H5.19531C4.98811 17.9688 4.7894 18.0511 4.64289 18.1976C4.49637 18.3441 4.41406 18.5428 4.41406 18.75C4.41406 18.9572 4.49637 19.1559 4.64289 19.3024C4.7894 19.4489 4.98811 19.5312 5.19531 19.5312H7.42813C7.63533 19.5312 7.83404 19.4489 7.98055 19.3024C8.12706 19.1559 8.20938 18.9572 8.20938 18.75C8.20938 18.5428 8.12706 18.3441 7.98055 18.1976C7.83404 18.0511 7.63611 17.9688 7.42891 17.9688ZM12.7859 18.75C12.7859 18.9572 12.8682 19.1559 13.0148 19.3024C13.1613 19.4489 13.36 19.5312 13.5672 19.5312H15.8C16.0072 19.5312 16.2059 19.4489 16.3524 19.3024C16.4989 19.1559 16.5813 18.9572 16.5813 18.75C16.5813 18.5428 16.4989 18.3441 16.3524 18.1976C16.2059 18.0511 16.0072 17.9688 15.8 17.9688H13.5672C13.36 17.9688 13.1613 18.0511 13.0148 18.1976C12.8682 18.3441 12.7859 18.5428 12.7859 18.75Z" fill="black"/>
<path d="M48.4375 0H15.625C14.7633 0 14.0625 0.700781 14.0625 1.5625V14.0625H1.5625C0.700781 14.0625 0 14.7633 0 15.625V48.4375C0 49.2992 0.700781 50 1.5625 50H34.375C35.2367 50 35.9375 49.2992 35.9375 48.4375V35.9375H48.4375C49.2992 35.9375 50 35.2367 50 34.375V1.5625C50 0.700781 49.2992 0 48.4375 0ZM34.375 48.4375H1.5625V23.4375H34.375V48.4375ZM34.375 21.875H1.5625V15.625L34.375 15.6227V21.875ZM48.4375 34.375H35.9375V15.625C35.9375 14.7633 35.2367 14.0625 34.375 14.0625H15.625V9.375H48.4375V34.375ZM48.4375 7.8125H15.625V1.5625H48.4375V7.8125Z" fill="black"/>
<path d="M19.2586 5.46875H21.4914C21.6986 5.46875 21.8973 5.38644 22.0438 5.23993C22.1903 5.09341 22.2727 4.8947 22.2727 4.6875C22.2727 4.4803 22.1903 4.28159 22.0438 4.13507C21.8973 3.98856 21.6986 3.90625 21.4914 3.90625H19.2578C19.0506 3.90625 18.8519 3.98856 18.7054 4.13507C18.5589 4.28159 18.4766 4.4803 18.4766 4.6875C18.4766 4.8947 18.5589 5.09341 18.7054 5.23993C18.8519 5.38644 19.0514 5.46875 19.2586 5.46875ZM27.6297 5.46875H29.8625C30.0697 5.46875 30.2684 5.38644 30.4149 5.23993C30.5614 5.09341 30.6437 4.8947 30.6437 4.6875C30.6437 4.4803 30.5614 4.28159 30.4149 4.13507C30.2684 3.98856 30.0697 3.90625 29.8625 3.90625H27.6297C27.4225 3.90625 27.2238 3.98856 27.0773 4.13507C26.9307 4.28159 26.8484 4.4803 26.8484 4.6875C26.8484 4.8947 26.9307 5.09341 27.0773 5.23993C27.2238 5.38644 27.4225 5.46875 27.6297 5.46875ZM11.1664 41.1773C11.2388 41.2501 11.3249 41.3079 11.4196 41.3473C11.5144 41.3868 11.6161 41.4071 11.7188 41.4071C11.8214 41.4071 11.9231 41.3868 12.0179 41.3473C12.1126 41.3079 12.1987 41.2501 12.2711 41.1773C12.4176 41.0308 12.4998 40.8322 12.4998 40.625C12.4998 40.4178 12.4176 40.2192 12.2711 40.0727L8.91719 36.7188L12.2711 33.3648C12.3457 33.2928 12.4052 33.2066 12.4462 33.1113C12.4871 33.0159 12.5087 32.9134 12.5096 32.8097C12.5105 32.706 12.4907 32.6031 12.4514 32.5071C12.4121 32.4111 12.3541 32.3238 12.2808 32.2505C12.2074 32.1771 12.1202 32.1191 12.0242 32.0798C11.9282 32.0405 11.8253 32.0208 11.7216 32.0217C11.6178 32.0226 11.5153 32.0441 11.42 32.0851C11.3247 32.126 11.2385 32.1855 11.1664 32.2602L7.26016 36.1664C7.11369 36.3129 7.03142 36.5116 7.03142 36.7188C7.03142 36.9259 7.11369 37.1246 7.26016 37.2711L11.1664 41.1773ZM23.6664 41.1773C23.7388 41.2501 23.8249 41.3079 23.9196 41.3473C24.0144 41.3868 24.1161 41.4071 24.2188 41.4071C24.3214 41.4071 24.4231 41.3868 24.5179 41.3473C24.6126 41.3079 24.6987 41.2501 24.7711 41.1773L28.6773 37.2711C28.8238 37.1246 28.9061 36.9259 28.9061 36.7188C28.9061 36.5116 28.8238 36.3129 28.6773 36.1664L24.7711 32.2602C24.699 32.1855 24.6128 32.126 24.5175 32.0851C24.4222 32.0441 24.3197 32.0226 24.2159 32.0217C24.1122 32.0208 24.0093 32.0405 23.9133 32.0798C23.8173 32.1191 23.7301 32.1771 23.6567 32.2505C23.5834 32.3238 23.5254 32.4111 23.4861 32.5071C23.4468 32.6031 23.427 32.706 23.4279 32.8097C23.4288 32.9134 23.4504 33.0159 23.4913 33.1113C23.5323 33.2066 23.5918 33.2928 23.6664 33.3648L27.0203 36.7188L23.6664 40.0727C23.5199 40.2192 23.4377 40.4178 23.4377 40.625C23.4377 40.8322 23.5199 41.0308 23.6664 41.1773ZM14.1336 45.3086C14.2272 45.3506 14.3281 45.3738 14.4306 45.3768C14.5331 45.3797 14.6352 45.3625 14.7311 45.326C14.8269 45.2895 14.9146 45.2345 14.9892 45.1641C15.0637 45.0936 15.1237 45.0092 15.1656 44.9156L22.1969 29.2258C22.2388 29.1322 22.262 29.0313 22.2649 28.9288C22.2679 28.8263 22.2506 28.7242 22.2141 28.6284C22.1776 28.5325 22.1226 28.4448 22.0522 28.3703C21.9819 28.2957 21.8975 28.2357 21.8039 28.1938C21.7103 28.1518 21.6094 28.1287 21.5069 28.1257C21.4044 28.1227 21.3023 28.14 21.2065 28.1765C21.1107 28.213 21.023 28.268 20.9484 28.3384C20.8738 28.4088 20.8138 28.4932 20.7719 28.5867L13.7406 44.2766C13.6986 44.3701 13.6754 44.471 13.6725 44.5736C13.6695 44.6761 13.6867 44.7782 13.7232 44.874C13.7597 44.9699 13.8147 45.0576 13.8852 45.1322C13.9556 45.2067 14.04 45.2667 14.1336 45.3086Z" fill="black"/>
</svg>
