<svg width="55" height="44" viewBox="0 0 55 44" fill="none" xmlns="http://www.w3.org/2000/svg">
<g id="Vector">
<path d="M54.3753 41.0025L49.1675 36.7717C49.1016 36.7196 49.032 36.6724 48.9591 36.6304C48.9736 36.5492 48.9821 36.4671 48.9844 36.3846V15.2308C48.9844 14.7819 48.8033 14.3515 48.481 14.0341C48.1587 13.7168 47.7215 13.5385 47.2657 13.5385H45.5469V2.53846C45.5461 1.86546 45.2742 1.22025 44.7909 0.744364C44.3076 0.26848 43.6523 0.000783797 42.9688 0H12.0312C11.3477 0.000783797 10.6924 0.26848 10.2091 0.744364C9.72576 1.22025 9.45388 1.86546 9.45309 2.53846V13.5385H7.73433C7.27849 13.5385 6.84132 13.7168 6.51899 14.0341C6.19666 14.3515 6.01558 14.7819 6.01558 15.2308V36.3846C6.01788 36.4671 6.02635 36.5492 6.04093 36.6304C5.96803 36.6724 5.89837 36.7196 5.83253 36.7717L0.624711 41.0025C0.351758 41.2243 0.155001 41.5237 0.061315 41.8597C-0.0323713 42.1957 -0.0184192 42.5521 0.101266 42.88C0.220951 43.2079 0.440533 43.4915 0.730021 43.692C1.01951 43.8924 1.36479 44 1.7187 44H53.2813C53.6352 44 53.9805 43.8924 54.27 43.692C54.5595 43.4915 54.779 43.2079 54.8987 42.88C55.0184 42.5521 55.0324 42.1957 54.9387 41.8597C54.845 41.5237 54.6482 41.2243 54.3753 41.0025ZM11.1718 2.53846C11.1722 2.31415 11.2628 2.09912 11.4239 1.94051C11.585 1.7819 11.8034 1.69264 12.0312 1.69231H42.9688C43.1966 1.69264 43.415 1.7819 43.5761 1.94051C43.7372 2.09912 43.8278 2.31415 43.8282 2.53846V6.76923H11.1718V2.53846ZM7.73433 15.2308H9.45309V33.8462C9.45309 34.0706 9.54363 34.2858 9.70479 34.4445C9.86596 34.6032 10.0845 34.6923 10.3125 34.6923C10.5404 34.6923 10.759 34.6032 10.9201 34.4445C11.0813 34.2858 11.1718 34.0706 11.1718 33.8462V8.46154H43.8282V33.8462C43.8282 34.0706 43.9187 34.2858 44.0799 34.4445C44.241 34.6032 44.4596 34.6923 44.6875 34.6923C44.9155 34.6923 45.134 34.6032 45.2952 34.4445C45.4564 34.2858 45.5469 34.0706 45.5469 33.8462V15.2308H47.2657V36.3846H7.73433V15.2308ZM1.7187 42.3077L6.92652 38.0769H48.0735L53.2813 42.3077H1.7187Z" fill="black"/>
<path d="M41.25 3.38462H39.5313C39.3034 3.38462 39.0848 3.47376 38.9236 3.63245C38.7624 3.79113 38.6719 4.00636 38.6719 4.23077C38.6719 4.45518 38.7624 4.67041 38.9236 4.82909C39.0848 4.98777 39.3034 5.07692 39.5313 5.07692H41.25C41.4779 5.07692 41.6965 4.98777 41.8577 4.82909C42.0189 4.67041 42.1094 4.45518 42.1094 4.23077C42.1094 4.00636 42.0189 3.79113 41.8577 3.63245C41.6965 3.47376 41.4779 3.38462 41.25 3.38462ZM36.0938 3.38462H34.375C34.1471 3.38462 33.9285 3.47376 33.7673 3.63245C33.6062 3.79113 33.5156 4.00636 33.5156 4.23077C33.5156 4.45518 33.6062 4.67041 33.7673 4.82909C33.9285 4.98777 34.1471 5.07692 34.375 5.07692H36.0938C36.3217 5.07692 36.5403 4.98777 36.7014 4.82909C36.8626 4.67041 36.9531 4.45518 36.9531 4.23077C36.9531 4.00636 36.8626 3.79113 36.7014 3.63245C36.5403 3.47376 36.3217 3.38462 36.0938 3.38462ZM41.25 11H24.9219C24.6939 11 24.4754 11.0891 24.3142 11.2478C24.153 11.4065 24.0625 11.6217 24.0625 11.8462C24.0625 12.0706 24.153 12.2858 24.3142 12.4445C24.4754 12.6032 24.6939 12.6923 24.9219 12.6923H41.25C41.4779 12.6923 41.6965 12.6032 41.8577 12.4445C42.0189 12.2858 42.1094 12.0706 42.1094 11.8462C42.1094 11.6217 42.0189 11.4065 41.8577 11.2478C41.6965 11.0891 41.4779 11 41.25 11ZM24.9219 16.0769H31.3672C31.5951 16.0769 31.8137 15.9878 31.9749 15.8291C32.136 15.6704 32.2266 15.4552 32.2266 15.2308C32.2266 15.0064 32.136 14.7911 31.9749 14.6324C31.8137 14.4738 31.5951 14.3846 31.3672 14.3846H24.9219C24.6939 14.3846 24.4754 14.4738 24.3142 14.6324C24.153 14.7911 24.0625 15.0064 24.0625 15.2308C24.0625 15.4552 24.153 15.6704 24.3142 15.8291C24.4754 15.9878 24.6939 16.0769 24.9219 16.0769ZM36.9531 14.3846H34.8047C34.5768 14.3846 34.3582 14.4738 34.197 14.6324C34.0359 14.7911 33.9453 15.0064 33.9453 15.2308C33.9453 15.4552 34.0359 15.6704 34.197 15.8291C34.3582 15.9878 34.5768 16.0769 34.8047 16.0769H36.9531C37.1811 16.0769 37.3997 15.9878 37.5608 15.8291C37.722 15.6704 37.8125 15.4552 37.8125 15.2308C37.8125 15.0064 37.722 14.7911 37.5608 14.6324C37.3997 14.4738 37.1811 14.3846 36.9531 14.3846ZM35.2344 20.3077C35.2344 20.5321 35.3249 20.7473 35.4861 20.906C35.6473 21.0647 35.8658 21.1538 36.0938 21.1538H38.2422C38.4701 21.1538 38.6887 21.0647 38.8499 20.906C39.011 20.7473 39.1016 20.5321 39.1016 20.3077C39.1016 20.0833 39.011 19.8681 38.8499 19.7094C38.6887 19.5507 38.4701 19.4615 38.2422 19.4615H36.0938C35.8658 19.4615 35.6473 19.5507 35.4861 19.7094C35.3249 19.8681 35.2344 20.0833 35.2344 20.3077ZM13.75 16.9231C13.9779 16.9231 14.1965 16.8339 14.3576 16.6752C14.5188 16.5166 14.6093 16.3013 14.6093 16.0769V11.8462H19.7656C19.9935 11.8462 20.2121 11.757 20.3733 11.5983C20.5344 11.4396 20.625 11.2244 20.625 11C20.625 10.7756 20.5344 10.5604 20.3733 10.4017C20.2121 10.243 19.9935 10.1538 19.7656 10.1538H13.75C13.5221 10.1538 13.3035 10.243 13.1423 10.4017C12.9811 10.5604 12.8906 10.7756 12.8906 11V16.0769C12.8906 16.3013 12.9811 16.5166 13.1423 16.6752C13.3035 16.8339 13.5221 16.9231 13.75 16.9231ZM24.9219 21.1538H32.6563C32.8842 21.1538 33.1028 21.0647 33.2639 20.906C33.4251 20.7473 33.5156 20.5321 33.5156 20.3077C33.5156 20.0833 33.4251 19.8681 33.2639 19.7094C33.1028 19.5507 32.8842 19.4615 32.6563 19.4615H24.9219C24.6939 19.4615 24.4754 19.5507 24.3142 19.7094C24.153 19.8681 24.0625 20.0833 24.0625 20.3077C24.0625 20.5321 24.153 20.7473 24.3142 20.906C24.4754 21.0647 24.6939 21.1538 24.9219 21.1538ZM24.9219 24.5385H40.8203C41.0483 24.5385 41.2668 24.4493 41.428 24.2906C41.5892 24.1319 41.6797 23.9167 41.6797 23.6923C41.6797 23.4679 41.5892 23.2527 41.428 23.094C41.2668 22.9353 41.0483 22.8462 40.8203 22.8462H24.9219C24.6939 22.8462 24.4754 22.9353 24.3142 23.094C24.153 23.2527 24.0625 23.4679 24.0625 23.6923C24.0625 23.9167 24.153 24.1319 24.3142 24.2906C24.4754 24.4493 24.6939 24.5385 24.9219 24.5385ZM13.75 25.3846C13.9779 25.3846 14.1965 25.2955 14.3576 25.1368C14.5188 24.9781 14.6093 24.7629 14.6093 24.5385V20.3077H19.7656C19.9935 20.3077 20.2121 20.2185 20.3733 20.0599C20.5344 19.9012 20.625 19.686 20.625 19.4615C20.625 19.2371 20.5344 19.0219 20.3733 18.8632C20.2121 18.7045 19.9935 18.6154 19.7656 18.6154H13.75C13.5221 18.6154 13.3035 18.7045 13.1423 18.8632C12.9811 19.0219 12.8906 19.2371 12.8906 19.4615V24.5385C12.8906 24.7629 12.9811 24.9781 13.1423 25.1368C13.3035 25.2955 13.5221 25.3846 13.75 25.3846ZM41.25 27.9231H24.9219C24.6939 27.9231 24.4754 28.0122 24.3142 28.1709C24.153 28.3296 24.0625 28.5448 24.0625 28.7692C24.0625 28.9936 24.153 29.2089 24.3142 29.3676C24.4754 29.5262 24.6939 29.6154 24.9219 29.6154H41.25C41.4779 29.6154 41.6965 29.5262 41.8577 29.3676C42.0189 29.2089 42.1094 28.9936 42.1094 28.7692C42.1094 28.5448 42.0189 28.3296 41.8577 28.1709C41.6965 28.0122 41.4779 27.9231 41.25 27.9231ZM36.9531 31.3077H24.9219C24.6939 31.3077 24.4754 31.3968 24.3142 31.5555C24.153 31.7142 24.0625 31.9294 24.0625 32.1538C24.0625 32.3783 24.153 32.5935 24.3142 32.7522C24.4754 32.9109 24.6939 33 24.9219 33H36.9531C37.1811 33 37.3997 32.9109 37.5608 32.7522C37.722 32.5935 37.8125 32.3783 37.8125 32.1538C37.8125 31.9294 37.722 31.7142 37.5608 31.5555C37.3997 31.3968 37.1811 31.3077 36.9531 31.3077ZM20.625 27.9231C20.625 27.6987 20.5344 27.4834 20.3733 27.3248C20.2121 27.1661 19.9935 27.0769 19.7656 27.0769H13.75C13.5221 27.0769 13.3035 27.1661 13.1423 27.3248C12.9811 27.4834 12.8906 27.6987 12.8906 27.9231V33C12.8906 33.2244 12.9811 33.4396 13.1423 33.5983C13.3035 33.757 13.5221 33.8462 13.75 33.8462C13.9779 33.8462 14.1965 33.757 14.3576 33.5983C14.5188 33.4396 14.6093 33.2244 14.6093 33V28.7692H19.7656C19.9935 28.7692 20.2121 28.6801 20.3733 28.5214C20.5344 28.3627 20.625 28.1475 20.625 27.9231Z" fill="black"/>
<path d="M20.8768 11.671L18.0469 14.4574L16.9357 13.3633C16.7736 13.2092 16.5565 13.1239 16.3312 13.1258C16.1059 13.1277 15.8903 13.2167 15.731 13.3736C15.5717 13.5305 15.4813 13.7427 15.4793 13.9646C15.4774 14.1864 15.564 14.4002 15.7205 14.5598L17.4393 16.2521C17.6004 16.4107 17.819 16.4998 18.0469 16.4998C18.2747 16.4998 18.4933 16.4107 18.6544 16.2521L22.0919 12.8675C22.2485 12.7079 22.3351 12.4941 22.3331 12.2723C22.3312 12.0504 22.2408 11.8382 22.0815 11.6813C21.9221 11.5244 21.7066 11.4354 21.4813 11.4335C21.2559 11.4316 21.0389 11.5169 20.8768 11.671ZM20.8768 20.1325L18.0469 22.9189L16.9357 21.8248C16.7736 21.6707 16.5565 21.5854 16.3312 21.5874C16.1059 21.5893 15.8903 21.6783 15.731 21.8352C15.5717 21.992 15.4813 22.2043 15.4793 22.4261C15.4774 22.648 15.564 22.8617 15.7205 23.0213L17.4393 24.7136C17.6004 24.8722 17.819 24.9614 18.0469 24.9614C18.2747 24.9614 18.4933 24.8722 18.6544 24.7136L22.0919 21.329C22.2485 21.1694 22.3351 20.9557 22.3331 20.7338C22.3312 20.512 22.2408 20.2997 22.0815 20.1428C21.9221 19.986 21.7066 19.897 21.4813 19.895C21.2559 19.8931 21.0389 19.9784 20.8768 20.1325ZM20.8768 28.5941L18.0469 31.3805L16.9357 30.2864C16.7736 30.1322 16.5565 30.047 16.3312 30.0489C16.1059 30.0508 15.8903 30.1398 15.731 30.2967C15.5717 30.4536 15.4813 30.6658 15.4793 30.8877C15.4774 31.1095 15.564 31.3233 15.7205 31.4828L17.4393 33.1752C17.6004 33.3338 17.819 33.4229 18.0469 33.4229C18.2747 33.4229 18.4933 33.3338 18.6544 33.1752L22.0919 29.7905C22.2485 29.631 22.3351 29.4172 22.3331 29.1954C22.3312 28.9735 22.2408 28.7613 22.0815 28.6044C21.9221 28.4475 21.7066 28.3585 21.4813 28.3566C21.2559 28.3547 21.0389 28.4399 20.8768 28.5941Z" fill="black"/>
</g>
</svg>
