<svg width="51" height="45" viewBox="0 0 51 45" fill="none" xmlns="http://www.w3.org/2000/svg">
<g id="Vector">
<path d="M32.14 18.5961C31.3007 17.7715 30.3274 17.1412 29.2708 16.7244C28.1886 16.2975 27.018 16.0947 25.8137 16.1365C23.4326 16.2203 21.2031 17.2507 19.535 19.0383C17.8666 20.8266 16.959 23.1569 16.9803 25.6011C17.001 28.0467 17.9485 30.3116 19.6484 31.9818C19.9644 32.2937 20.4804 32.2778 20.7941 31.9411C21.1076 31.6052 21.1034 31.0777 20.7839 30.7635C19.3937 29.3982 18.6193 27.5438 18.6016 25.5446C18.584 23.5453 19.3265 21.6381 20.6929 20.1749C22.0579 18.713 23.8822 17.8694 25.8291 17.8007C27.7783 17.7329 29.6161 18.4471 31.0057 19.814C32.3955 21.1801 33.171 23.034 33.1879 25.0329C33.2052 27.033 32.4638 28.9397 31.0974 30.4029C30.7847 30.7391 30.7885 31.2655 31.108 31.5797C31.4275 31.8938 31.9408 31.8759 32.2545 31.5392C35.6973 27.8485 35.6472 22.0435 32.14 18.5961Z" fill="black"/>
<path d="M37.704 12.8029C36.1022 11.2269 34.2433 10.0233 32.2262 9.22766C30.1587 8.41212 27.9255 8.0257 25.6265 8.10601C21.0807 8.26576 16.8234 10.2333 13.6383 13.6477C10.4523 17.0599 8.72135 21.5092 8.76136 26.177C8.80354 30.8438 10.6107 35.1695 13.8548 38.3572C14.1705 38.6699 14.6876 38.6535 15.0013 38.3168C15.3148 37.9809 15.3103 37.4541 14.9907 37.14C12.0569 34.2556 10.4204 30.3421 10.3835 26.1208C10.3468 21.8987 11.9126 17.8725 14.7954 14.784C17.6781 11.6956 21.53 9.9157 25.6408 9.77071C29.7537 9.62742 33.6337 11.1373 36.5685 14.0212C42.6255 19.9731 42.7124 30.002 36.7642 36.3764C36.4507 36.7123 36.455 37.2399 36.7745 37.554C37.0934 37.8697 37.6083 37.8498 37.9213 37.5128C44.4949 30.4659 44.3979 19.3814 37.704 12.8029Z" fill="black"/>
<path d="M0.543049 26.7514C0.603461 33.6407 3.27347 40.0258 8.06232 44.7322C8.37749 45.0437 8.89505 45.0284 9.20912 44.6909C9.52258 44.355 9.51804 43.8283 9.19853 43.5141C4.71941 39.1127 2.22252 33.1381 2.1647 26.6941C2.10844 20.2507 4.49942 14.1053 8.89973 9.39295C17.9791 -0.336498 32.887 -0.861901 42.1337 8.22492C51.3767 17.3121 51.5102 32.6187 42.4297 42.3486C42.1163 42.6845 42.1208 43.2112 42.4395 43.5251C42.758 43.8397 43.2731 43.8216 43.586 43.4846C53.2928 33.0845 53.1504 16.7218 43.2675 7.00861C40.8777 4.65952 38.135 2.91207 35.2109 1.75862C26.043 -1.85688 15.1012 0.370976 7.74156 8.25706C3.03919 13.2946 0.482331 19.8628 0.543049 26.7514Z" fill="black"/>
</g>
</svg>
