<svg width="140" height="140" viewBox="0 0 140 140" fill="none" xmlns="http://www.w3.org/2000/svg">
<g id="Group 1">
<circle id="Ellipse 5" cx="70" cy="70" r="52.907" fill="#245887"/>
<circle id="Ellipse 6" cx="70" cy="70" r="69" stroke="black" stroke-width="2"/>
<path id="Planning" d="M91.646 60.5887V58.7065C91.6415 58.6741 91.6352 58.6421 91.6272 58.6105C93.0121 57.8245 94.1098 56.6168 94.7605 55.1634C95.4112 53.7101 95.5809 52.0869 95.2448 50.5304C94.9087 48.9739 94.0844 47.5653 92.892 46.5099C91.6996 45.4545 90.2014 44.8074 88.6156 44.6629C88.5273 44.6308 88.4346 44.6124 88.3408 44.6083H88.3219C88.2941 44.6125 88.2664 44.6182 88.2391 44.6252C88.1205 44.6252 88.0095 44.5895 87.889 44.5895C86.232 44.5843 84.6199 45.1276 83.3041 46.1348C81.9883 47.1419 81.0429 48.5562 80.6152 50.1571C80.1875 51.758 80.3017 53.4553 80.9399 54.9845C81.5781 56.5137 82.7045 57.7886 84.1433 58.6105C84.1327 58.6419 84.1239 58.674 84.117 58.7065V60.5887H80.3524C80.2756 60.5884 80.1991 60.5979 80.1247 60.617L73.7645 62.2056V48.354C73.7645 47.106 73.2687 45.9091 72.3862 45.0266C71.5037 44.1441 70.3068 43.6483 69.0588 43.6483H62.3749C62.158 42.5858 61.5807 41.6307 60.7408 40.9448C59.9008 40.2588 58.8497 39.884 57.7652 39.8838H55.8829C54.7985 39.884 53.7473 40.2588 52.9074 40.9448C52.0674 41.6307 51.4902 42.5858 51.2733 43.6483H44.5893C43.3413 43.6483 42.1444 44.1441 41.2619 45.0266C40.3794 45.9091 39.8837 47.106 39.8837 48.354V70.9412C39.8856 72.0395 40.2717 73.1026 40.9751 73.9462C41.6784 74.7898 42.6547 75.3608 43.7348 75.5603C43.8713 76.2839 44.1757 76.9654 44.6236 77.5499C45.0715 78.1344 45.6503 78.6057 46.3135 78.9258L40.8587 98.9286C40.8208 99.0681 40.8156 99.2145 40.8434 99.3563C40.8712 99.4981 40.9313 99.6316 41.019 99.7465C41.1068 99.8614 41.2198 99.9545 41.3493 100.019C41.4788 100.083 41.6214 100.116 41.7659 100.116H45.5305C45.7369 100.116 45.9376 100.048 46.1016 99.9225C46.2655 99.797 46.3836 99.621 46.4377 99.4218L51.8963 79.4114H54.0007V99.1752C54.0007 99.4248 54.0998 99.6642 54.2763 99.8407C54.4528 100.017 54.6922 100.116 54.9418 100.116H58.7063C58.9559 100.116 59.1953 100.017 59.3718 99.8407C59.5483 99.6642 59.6475 99.4248 59.6475 99.1752V79.4114H61.7519L67.2104 99.4218C67.2645 99.621 67.3826 99.797 67.5466 99.9225C67.7105 100.048 67.9112 100.116 68.1177 100.116H71.8822C72.0267 100.116 72.1693 100.083 72.2988 100.019C72.4284 99.9545 72.5414 99.8614 72.6291 99.7465C72.7168 99.6316 72.7769 99.4981 72.8048 99.3563C72.8326 99.2145 72.8273 99.0681 72.7895 98.9286L67.3309 78.9277C67.9941 78.6076 68.5729 78.1363 69.0208 77.5518C69.4686 76.9673 69.7731 76.2858 69.9096 75.5622C70.9907 75.3634 71.9681 74.7925 72.6722 73.9484C73.3764 73.1044 73.7628 72.0404 73.7645 70.9412V69.7761C73.8172 69.7667 73.8699 69.7761 73.9207 69.7554L79.4113 68.3832V80.3525C79.4113 80.3695 79.4113 80.3845 79.4207 80.4034C79.4301 80.4222 79.4207 80.4316 79.4207 80.4466L81.1336 97.5753C81.201 98.2719 81.5258 98.9183 82.0444 99.3882C82.5631 99.8581 83.2383 100.118 83.9381 100.116H91.646C92.3948 100.116 93.113 99.8189 93.6425 99.2894C94.172 98.7599 94.4694 98.0418 94.4694 97.2929V85.0582H95.4106C96.0285 85.0582 96.6404 84.9365 97.2113 84.7C97.7823 84.4635 98.301 84.1169 98.738 83.6799C99.1749 83.243 99.5215 82.7242 99.758 82.1533C99.9945 81.5824 100.116 80.9705 100.116 80.3525V69.0589C100.116 66.8125 99.2238 64.6581 97.6354 63.0696C96.0469 61.4811 93.8925 60.5887 91.646 60.5887ZM87.8815 46.4717C89.2025 46.4743 90.4809 46.94 91.494 47.7878C92.5072 48.6355 93.1911 49.8116 93.4266 51.1115L88.3972 49.6829C87.3921 49.3982 86.321 49.4552 85.3517 49.8447L82.3401 51.0588C82.5865 49.7693 83.2745 48.6059 84.2858 47.7687C85.2972 46.9315 86.5686 46.4729 87.8815 46.4717ZM82.3288 53.0408C82.4173 53.0362 82.5048 53.0191 82.5886 52.99L86.0557 51.5915C86.6384 51.3593 87.2811 51.3249 87.8853 51.4936L93.2704 53.0239C93.3245 53.0333 93.3793 53.0377 93.4342 53.0371C93.2192 54.3548 92.5426 55.553 91.5254 56.4178C90.5082 57.2825 89.2166 57.7573 87.8815 57.7573C86.5464 57.7573 85.2548 57.2825 84.2376 56.4178C83.2203 55.553 82.5438 54.3548 82.3288 53.0371V53.0408ZM89.7638 59.3803V62.471C89.7638 62.9702 89.5654 63.449 89.2125 63.802C88.8595 64.155 88.3807 64.3533 87.8815 64.3533C87.3823 64.3533 86.9035 64.155 86.5505 63.802C86.1975 63.449 85.9992 62.9702 85.9992 62.471V59.3803C87.2288 59.7366 88.5342 59.7366 89.7638 59.3803ZM55.8829 41.7661H57.7652C58.349 41.7661 58.9184 41.9472 59.3951 42.2843C59.8717 42.6214 60.2321 43.0979 60.4267 43.6483H53.2214C53.416 43.0979 53.7764 42.6214 54.2531 42.2843C54.7297 41.9472 55.2991 41.7661 55.8829 41.7661ZM44.8114 98.2341H42.9969L48.1318 79.4114H49.9463L44.8114 98.2341ZM57.7652 98.2341H55.8829V79.4114H57.7652V98.2341ZM70.6512 98.2341H68.8367L63.7019 79.4114H65.5164L70.6512 98.2341ZM65.2943 77.5291H48.3539C47.7701 77.5291 47.2007 77.348 46.724 77.0109C46.2474 76.6738 45.8869 76.1973 45.6923 75.6469H67.9558C67.7612 76.1973 67.4008 76.6738 66.9241 77.0109C66.4475 77.348 65.8781 77.5291 65.2943 77.5291ZM71.8822 70.9412C71.8822 71.69 71.5847 72.4082 71.0553 72.9376C70.5258 73.4671 69.8076 73.7646 69.0588 73.7646H44.5893C43.8405 73.7646 43.1224 73.4671 42.5929 72.9376C42.0634 72.4082 41.7659 71.69 41.7659 70.9412V48.354C41.7659 47.6052 42.0634 46.887 42.5929 46.3575C43.1224 45.8281 43.8405 45.5306 44.5893 45.5306H69.0588C69.8076 45.5306 70.5258 45.8281 71.0553 46.3575C71.5847 46.887 71.8822 47.6052 71.8822 48.354V61.5299L65.859 57.0124C65.7191 56.9076 65.5529 56.8437 65.3788 56.828C65.2047 56.8123 65.0297 56.8454 64.8734 56.9236C64.7171 57.0017 64.5856 57.1219 64.4937 57.2705C64.4018 57.4192 64.3531 57.5905 64.3531 57.7653V57.9837L58.584 47.8872C58.4592 47.6703 58.2533 47.5118 58.0117 47.4467C57.7701 47.3816 57.5125 47.4151 57.2956 47.5399C57.0787 47.6647 56.9202 47.8706 56.8551 48.1122C56.79 48.3538 56.8235 48.6114 56.9483 48.8283L64.4774 62.0042C64.4887 62.0249 64.5131 62.0343 64.5263 62.0531C64.8726 63.5724 65.7446 64.9203 66.9883 65.8591L71.5415 69.2754C71.6503 69.3498 71.7641 69.4164 71.8822 69.4749V70.9412ZM68.1177 61.0593V64.3533C67.5344 63.9138 67.061 63.3452 66.7344 62.6921C66.4078 62.0389 66.237 61.319 66.2354 60.5887V59.6476L68.1177 61.0593ZM92.5872 82.2348V97.2929C92.5872 97.5425 92.488 97.7819 92.3115 97.9584C92.135 98.1349 91.8956 98.2341 91.646 98.2341H88.8226V85.9993C88.8226 85.7497 88.7235 85.5104 88.547 85.3339C88.3705 85.1574 88.1311 85.0582 87.8815 85.0582C87.6319 85.0582 87.3925 85.1574 87.216 85.3339C87.0395 85.5104 86.9404 85.7497 86.9404 85.9993V98.2341H83.9381C83.704 98.2352 83.4779 98.1491 83.3038 97.9925C83.1298 97.8359 83.0204 97.62 82.997 97.3871L81.3933 81.2937H92.5872V82.2348ZM98.234 80.3525C98.234 81.1013 97.9365 81.8195 97.407 82.349C96.8775 82.8785 96.1594 83.1759 95.4106 83.1759H94.4694V79.4114H98.234V80.3525ZM98.234 77.5291H94.4694V72.8235C94.4694 72.5739 94.3703 72.3345 94.1938 72.158C94.0173 71.9815 93.7779 71.8823 93.5283 71.8823C93.2787 71.8823 93.0393 71.9815 92.8628 72.158C92.6863 72.3345 92.5872 72.5739 92.5872 72.8235V79.4114H81.2936V67.1767C81.2936 67.0337 81.2611 66.8926 81.1984 66.7641C81.1358 66.6356 81.0448 66.5231 80.9322 66.4351C80.82 66.346 80.6887 66.2842 80.5486 66.2545C80.4084 66.2247 80.2633 66.2279 80.1247 66.2638L73.4652 67.9277C73.3292 67.9611 73.1875 67.964 73.0502 67.9364C72.9129 67.9087 72.7834 67.8511 72.6709 67.7677L69.9999 65.765V62.471L72.2587 64.165C72.3701 64.2499 72.4992 64.3084 72.6365 64.3361C72.7738 64.3638 72.9155 64.36 73.0511 64.325L80.4691 62.471H84.117C84.117 63.4694 84.5136 64.4269 85.2196 65.1329C85.9255 65.8389 86.8831 66.2355 87.8815 66.2355C88.8799 66.2355 89.8374 65.8389 90.5434 65.1329C91.2494 64.4269 91.646 63.4694 91.646 62.471C93.3933 62.471 95.0689 63.1651 96.3044 64.4006C97.5399 65.636 98.234 67.3117 98.234 69.0589V77.5291ZM48.3539 56.8242H47.4127V48.354C47.4131 48.1676 47.3581 47.9853 47.2547 47.8302C47.1513 47.6752 47.0042 47.5543 46.832 47.4829C46.6598 47.4115 46.4703 47.3929 46.2875 47.4294C46.1048 47.4658 45.9369 47.5557 45.8053 47.6877L43.923 49.5699C43.7516 49.7474 43.6567 49.9852 43.6589 50.2319C43.661 50.4787 43.76 50.7147 43.9345 50.8892C44.109 51.0637 44.345 51.1627 44.5918 51.1649C44.8385 51.167 45.0763 51.0721 45.2538 50.9007L45.5305 50.6259V56.8242H44.5893C44.3397 56.8242 44.1004 56.9233 43.9239 57.0998C43.7474 57.2763 43.6482 57.5157 43.6482 57.7653C43.6482 58.0149 43.7474 58.2543 43.9239 58.4308C44.1004 58.6073 44.3397 58.7065 44.5893 58.7065H48.3539C48.6035 58.7065 48.8429 58.6073 49.0194 58.4308C49.1958 58.2543 49.295 58.0149 49.295 57.7653C49.295 57.5157 49.1958 57.2763 49.0194 57.0998C48.8429 56.9233 48.6035 56.8242 48.3539 56.8242ZM61.5297 70.0001H52.1184C51.8688 70.0001 51.6294 70.0992 51.4529 70.2757C51.2764 70.4522 51.1773 70.6916 51.1773 70.9412C51.1773 71.1908 51.2764 71.4302 51.4529 71.6067C51.6294 71.7832 51.8688 71.8823 52.1184 71.8823H61.5297C61.7793 71.8823 62.0187 71.7832 62.1952 71.6067C62.3717 71.4302 62.4709 71.1908 62.4709 70.9412C62.4709 70.6916 62.3717 70.4522 62.1952 70.2757C62.0187 70.0992 61.7793 70.0001 61.5297 70.0001ZM52.1184 51.1774H54.0007C54.2503 51.1774 54.4897 51.0782 54.6662 50.9017C54.8427 50.7252 54.9418 50.4859 54.9418 50.2363C54.9418 49.9867 54.8427 49.7473 54.6662 49.5708C54.4897 49.3943 54.2503 49.2951 54.0007 49.2951H52.1184C51.8688 49.2951 51.6294 49.3943 51.4529 49.5708C51.2764 49.7473 51.1773 49.9867 51.1773 50.2363C51.1773 50.4859 51.2764 50.7252 51.4529 50.9017C51.6294 51.0782 51.8688 51.1774 52.1184 51.1774ZM48.3539 62.471H44.5893C44.3397 62.471 44.1004 62.5702 43.9239 62.7466C43.7474 62.9231 43.6482 63.1625 43.6482 63.4121C43.6482 63.6617 43.7474 63.9011 43.9239 64.0776C44.1004 64.2541 44.3397 64.3533 44.5893 64.3533H47.4127V66.2355H44.5893C44.3397 66.2355 44.1004 66.3347 43.9239 66.5112C43.7474 66.6877 43.6482 66.9271 43.6482 67.1767V70.9412C43.6482 71.1908 43.7474 71.4302 43.9239 71.6067C44.1004 71.7832 44.3397 71.8823 44.5893 71.8823H48.3539C48.6035 71.8823 48.8429 71.7832 49.0194 71.6067C49.1958 71.4302 49.295 71.1908 49.295 70.9412C49.295 70.6916 49.1958 70.4522 49.0194 70.2757C48.8429 70.0992 48.6035 70.0001 48.3539 70.0001H45.5305V68.1178H48.3539C48.6035 68.1178 48.8429 68.0186 49.0194 67.8421C49.1958 67.6656 49.295 67.4263 49.295 67.1767V63.4121C49.295 63.1625 49.1958 62.9231 49.0194 62.7466C48.8429 62.5702 48.6035 62.471 48.3539 62.471ZM52.1184 58.7065H57.7652C58.0148 58.7065 58.2542 58.6073 58.4307 58.4308C58.6072 58.2543 58.7063 58.0149 58.7063 57.7653C58.7063 57.5157 58.6072 57.2763 58.4307 57.0998C58.2542 56.9233 58.0148 56.8242 57.7652 56.8242H52.1184C51.8688 56.8242 51.6294 56.9233 51.4529 57.0998C51.2764 57.2763 51.1773 57.5157 51.1773 57.7653C51.1773 58.0149 51.2764 58.2543 51.4529 58.4308C51.6294 58.6073 51.8688 58.7065 52.1184 58.7065ZM52.1184 54.9419H55.8829C56.1325 54.9419 56.3719 54.8428 56.5484 54.6663C56.7249 54.4898 56.8241 54.2504 56.8241 54.0008C56.8241 53.7512 56.7249 53.5118 56.5484 53.3353C56.3719 53.1588 56.1325 53.0597 55.8829 53.0597H52.1184C51.8688 53.0597 51.6294 53.1588 51.4529 53.3353C51.2764 53.5118 51.1773 53.7512 51.1773 54.0008C51.1773 54.2504 51.2764 54.4898 51.4529 54.6663C51.6294 54.8428 51.8688 54.9419 52.1184 54.9419ZM61.5297 62.471H52.1184C51.8688 62.471 51.6294 62.5702 51.4529 62.7466C51.2764 62.9231 51.1773 63.1625 51.1773 63.4121C51.1773 63.6617 51.2764 63.9011 51.4529 64.0776C51.6294 64.2541 51.8688 64.3533 52.1184 64.3533H61.5297C61.7793 64.3533 62.0187 64.2541 62.1952 64.0776C62.3717 63.9011 62.4709 63.6617 62.4709 63.4121C62.4709 63.1625 62.3717 62.9231 62.1952 62.7466C62.0187 62.5702 61.7793 62.471 61.5297 62.471ZM61.5297 66.2355H52.1184C51.8688 66.2355 51.6294 66.3347 51.4529 66.5112C51.2764 66.6877 51.1773 66.9271 51.1773 67.1767C51.1773 67.4263 51.2764 67.6656 51.4529 67.8421C51.6294 68.0186 51.8688 68.1178 52.1184 68.1178H61.5297C61.7793 68.1178 62.0187 68.0186 62.1952 67.8421C62.3717 67.6656 62.4709 67.4263 62.4709 67.1767C62.4709 66.9271 62.3717 66.6877 62.1952 66.5112C62.0187 66.3347 61.7793 66.2355 61.5297 66.2355Z" fill="white"/>
</g>
</svg>
