<svg width="140" height="140" viewBox="0 0 140 140" fill="none" xmlns="http://www.w3.org/2000/svg">
<g id="Group 2">
<ellipse id="Ellipse 7" cx="69.593" cy="70" rx="53.314" ry="52.907" fill="#245887"/>
<circle id="Ellipse 8" cx="70" cy="70" r="69" stroke="black" stroke-width="2"/>
<g id="Design">
<path d="M95.0968 100.116H44.903C42.1349 100.116 39.8837 97.8587 39.8837 95.0825V57.3286C39.8837 54.5524 42.1349 52.2948 44.903 52.2948H69.9999C70.3328 52.2948 70.6519 52.4273 70.8873 52.6633C71.1226 52.8994 71.2548 53.2194 71.2548 53.5532C71.2548 53.887 71.1226 54.2071 70.8873 54.4431C70.6519 54.6791 70.3328 54.8117 69.9999 54.8117H44.903C43.519 54.8117 42.3934 55.9405 42.3934 57.3286V95.0825C42.3934 96.4706 43.519 97.5994 44.903 97.5994H95.0968C96.4809 97.5994 97.6065 96.4706 97.6065 95.0825V57.3286C97.6065 55.9405 96.4809 54.8117 95.0968 54.8117C94.764 54.8117 94.4449 54.6791 94.2095 54.4431C93.9742 54.2071 93.842 53.887 93.842 53.5532C93.842 53.2194 93.9742 52.8994 94.2095 52.6633C94.4449 52.4273 94.764 52.2948 95.0968 52.2948C97.865 52.2948 100.116 54.5524 100.116 57.3286V95.0825C100.116 97.8587 97.865 100.116 95.0968 100.116Z" fill="white"/>
<path d="M95.0968 95.0825H52.4321V57.3286H64.9806C65.3134 57.3286 65.6325 57.4612 65.8679 57.6972C66.1032 57.9332 66.2354 58.2533 66.2354 58.5871C66.2354 58.9208 66.1032 59.2409 65.8679 59.4769C65.6325 59.7129 65.3134 59.8455 64.9806 59.8455H54.9418V92.5656H92.5872V59.8455H90.0775C89.7447 59.8455 89.4255 59.7129 89.1902 59.4769C88.9548 59.2409 88.8226 58.9208 88.8226 58.5871C88.8226 58.2533 88.9548 57.9332 89.1902 57.6972C89.4255 57.4612 89.7447 57.3286 90.0775 57.3286H95.0968V95.0825Z" fill="white"/>
<path d="M49.9224 92.5656H39.8837V59.8455H49.9224V92.5656ZM42.3934 90.0486H47.4127V62.3625H42.3934V90.0486Z" fill="white"/>
<path d="M61.7682 74.3934L65.0797 63.9519L87.6569 41.3109C89.5529 39.4081 92.8595 39.4081 94.7555 41.3109C95.6956 42.2554 96.2236 43.5353 96.2236 44.8698C96.2236 46.2043 95.6956 47.4843 94.7555 48.4288L72.1796 71.071L61.7682 74.3934ZM67.287 65.2984L65.6306 70.5186L70.8357 68.8574L92.9812 46.6505C93.96 45.6689 93.96 44.0732 92.9812 43.0916C92.0325 42.1402 90.3799 42.1402 89.4312 43.0916L67.287 65.2984Z" fill="white"/>
<path d="M41.1385 69.9132H48.6676V72.4302H41.1385V69.9132Z" fill="white"/>
<path d="M41.1385 79.9809H48.6676V82.4979H41.1385V79.9809Z" fill="white"/>
<path d="M92.0927 50.5782C91.9279 50.5784 91.7647 50.5459 91.6125 50.4826C91.4602 50.4193 91.3219 50.3265 91.2056 50.2095L85.8813 44.8698C85.7648 44.753 85.6723 44.6143 85.6093 44.4616C85.5462 44.3089 85.5138 44.1453 85.5138 43.9801C85.5138 43.8148 85.5462 43.6512 85.6093 43.4986C85.6723 43.3459 85.7648 43.2072 85.8813 43.0904C85.9978 42.9735 86.1361 42.8808 86.2883 42.8176C86.4405 42.7544 86.6037 42.7218 86.7684 42.7218C86.9332 42.7218 87.0964 42.7544 87.2486 42.8176C87.4008 42.8808 87.5391 42.9735 87.6556 43.0904L92.9799 48.43C93.156 48.6058 93.276 48.83 93.3247 49.0743C93.3735 49.3186 93.3488 49.5719 93.2537 49.8021C93.1586 50.0323 92.9975 50.2289 92.7908 50.3671C92.5841 50.5053 92.3412 50.5788 92.0927 50.5782Z" fill="white"/>
<path d="M84.9953 57.6973C84.8305 57.6975 84.6673 57.665 84.5151 57.6017C84.3628 57.5385 84.2245 57.4456 84.1082 57.3286L78.7839 51.9889C78.6674 51.8721 78.5749 51.7334 78.5119 51.5807C78.4488 51.4281 78.4164 51.2645 78.4164 51.0992C78.4164 50.934 78.4488 50.7704 78.5119 50.6177C78.5749 50.465 78.6674 50.3263 78.7839 50.2095C78.9004 50.0926 79.0387 50 79.1909 49.9367C79.3431 49.8735 79.5063 49.8409 79.671 49.8409C79.8358 49.8409 79.999 49.8735 80.1512 49.9367C80.3034 50 80.4417 50.0926 80.5582 50.2095L85.8825 55.5491C86.0586 55.7249 86.1786 55.9492 86.2273 56.1934C86.2761 56.4377 86.2514 56.691 86.1563 56.9212C86.0612 57.1514 85.9001 57.348 85.6934 57.4862C85.4867 57.6244 85.2438 57.6979 84.9953 57.6973Z" fill="white"/>
<path d="M71.5083 71.2233C71.3435 71.2235 71.1803 71.191 71.028 71.1277C70.8758 71.0644 70.7375 70.9716 70.6211 70.8546L65.2968 65.5149C65.0615 65.2789 64.9293 64.9589 64.9293 64.6252C64.9293 64.2915 65.0615 63.9714 65.2968 63.7354C65.5321 63.4995 65.8512 63.3669 66.184 63.3669C66.5167 63.3669 66.8358 63.4995 67.0711 63.7354L72.3954 69.0751C72.5715 69.2509 72.6915 69.4751 72.7403 69.7194C72.789 69.9637 72.7643 70.217 72.6692 70.4472C72.5742 70.6773 72.4131 70.874 72.2064 71.0122C71.9997 71.1504 71.7567 71.2238 71.5083 71.2233Z" fill="white"/>
<path d="M61.216 76.2055C60.9676 76.2061 60.7246 76.1326 60.5179 75.9944C60.3112 75.8563 60.1501 75.6596 60.0551 75.4294C59.96 75.1993 59.9353 74.9459 59.984 74.7017C60.0328 74.4574 60.1528 74.2331 60.3289 74.0574L62.8122 71.5669C63.0475 71.3309 63.3666 71.1983 63.6994 71.1983C64.0321 71.1983 64.3513 71.3309 64.5865 71.5669C64.8218 71.8028 64.954 72.1229 64.954 72.4566C64.954 72.7903 64.8218 73.1103 64.5865 73.3463L62.1032 75.8368C61.9868 75.9539 61.8486 76.0467 61.6963 76.11C61.5441 76.1732 61.3808 76.2057 61.216 76.2055Z" fill="white"/>
</g>
</g>
</svg>
