<svg width="140" height="140" viewBox="0 0 140 140" fill="none" xmlns="http://www.w3.org/2000/svg">
<g id="Group 3">
<ellipse id="Ellipse 9" cx="69.593" cy="70" rx="53.314" ry="52.907" fill="#245887"/>
<circle id="Ellipse 10" cx="70" cy="70" r="69" stroke="black" stroke-width="2"/>
<g id="Development">
<path d="M63.0837 46.4717H65.7735C66.0231 46.4717 66.2625 46.3726 66.4389 46.1961C66.6154 46.0196 66.7146 45.7802 66.7146 45.5306C66.7146 45.281 66.6154 45.0416 66.4389 44.8651C66.2625 44.6886 66.0231 44.5895 65.7735 44.5895H63.0828C62.8332 44.5895 62.5938 44.6886 62.4173 44.8651C62.2408 45.0416 62.1416 45.281 62.1416 45.5306C62.1416 45.7802 62.2408 46.0196 62.4173 46.1961C62.5938 46.3726 62.8341 46.4717 63.0837 46.4717ZM73.168 46.4717H75.8577C76.1073 46.4717 76.3467 46.3726 76.5232 46.1961C76.6997 46.0196 76.7988 45.7802 76.7988 45.5306C76.7988 45.281 76.6997 45.0416 76.5232 44.8651C76.3467 44.6886 76.1073 44.5895 75.8577 44.5895H73.168C72.9184 44.5895 72.679 44.6886 72.5025 44.8651C72.326 45.0416 72.2268 45.281 72.2268 45.5306C72.2268 45.7802 72.326 46.0196 72.5025 46.1961C72.679 46.3726 72.9184 46.4717 73.168 46.4717ZM53.3354 89.4881C53.4226 89.5758 53.5263 89.6454 53.6405 89.6929C53.7547 89.7404 53.8772 89.7649 54.0008 89.7649C54.1245 89.7649 54.2469 89.7404 54.3611 89.6929C54.4753 89.6454 54.579 89.5758 54.6662 89.4881C54.8426 89.3116 54.9418 89.0723 54.9418 88.8227C54.9418 88.5732 54.8426 88.3339 54.6662 88.1574L50.6259 84.1171L54.6662 80.0768C54.7561 79.99 54.8278 79.8861 54.8771 79.7713C54.9264 79.6565 54.9524 79.533 54.9535 79.408C54.9546 79.2831 54.9308 79.1591 54.8834 79.0435C54.8361 78.9278 54.7662 78.8227 54.6779 78.7344C54.5895 78.646 54.4844 78.5761 54.3688 78.5288C54.2531 78.4815 54.1292 78.4577 54.0042 78.4587C53.8792 78.4598 53.7558 78.4858 53.6409 78.5351C53.5261 78.5844 53.4223 78.6561 53.3354 78.746L48.6298 83.4517C48.4533 83.6282 48.3542 83.8675 48.3542 84.1171C48.3542 84.3666 48.4533 84.606 48.6298 84.7825L53.3354 89.4881ZM68.3936 89.4881C68.4808 89.5758 68.5845 89.6454 68.6986 89.6929C68.8128 89.7404 68.9353 89.7649 69.059 89.7649C69.1826 89.7649 69.3051 89.7404 69.4193 89.6929C69.5335 89.6454 69.6371 89.5758 69.7243 89.4881L74.43 84.7825C74.6064 84.606 74.7056 84.3666 74.7056 84.1171C74.7056 83.8675 74.6064 83.6282 74.43 83.4517L69.7243 78.746C69.6375 78.6561 69.5337 78.5844 69.4189 78.5351C69.304 78.4858 69.1805 78.4598 69.0556 78.4587C68.9306 78.4577 68.8067 78.4815 68.691 78.5288C68.5754 78.5761 68.4703 78.646 68.3819 78.7344C68.2936 78.8227 68.2237 78.9278 68.1763 79.0435C68.129 79.1591 68.1052 79.2831 68.1063 79.408C68.1074 79.533 68.1333 79.6565 68.1827 79.7713C68.232 79.8861 68.3037 79.99 68.3936 80.0768L72.4339 84.1171L68.3936 88.1574C68.2171 88.3339 68.118 88.5732 68.118 88.8227C68.118 89.0723 68.2171 89.3116 68.3936 89.4881ZM56.9099 94.4648C57.0226 94.5155 57.1441 94.5434 57.2676 94.547C57.3911 94.5506 57.5141 94.5298 57.6296 94.4858C57.7451 94.4419 57.8507 94.3756 57.9406 94.2907C58.0304 94.2059 58.1026 94.1042 58.1531 93.9915L66.6233 75.0907C66.6739 74.9779 66.7017 74.8564 66.7053 74.7329C66.7088 74.6094 66.6881 74.4864 66.6441 74.371C66.6001 74.2556 66.5339 74.1499 66.4491 74.0601C66.3643 73.9702 66.2626 73.898 66.1499 73.8474C66.0372 73.7969 65.9156 73.769 65.7922 73.7655C65.6687 73.7619 65.5457 73.7827 65.4303 73.8266C65.3148 73.8706 65.2092 73.9369 65.1193 74.0217C65.0295 74.1064 64.9572 74.2081 64.9067 74.3208L56.4365 93.2216C56.3859 93.3343 56.358 93.4559 56.3544 93.5794C56.3508 93.7029 56.3715 93.8259 56.4155 93.9413C56.4595 94.0568 56.5258 94.1625 56.6106 94.2523C56.6954 94.3421 56.7971 94.4143 56.9099 94.4648Z" fill="white"/>
<path d="M48.833 61.5299H46.1423C45.8927 61.5299 45.6533 61.629 45.4768 61.8055C45.3003 61.982 45.2012 62.2214 45.2012 62.471C45.2012 62.7206 45.3003 62.96 45.4768 63.1365C45.6533 63.313 45.8927 63.4121 46.1423 63.4121H48.8321C49.0817 63.4121 49.3211 63.313 49.4976 63.1365C49.6741 62.96 49.7732 62.7206 49.7732 62.471C49.7732 62.2214 49.6741 61.982 49.4976 61.8055C49.3211 61.629 49.0826 61.5299 48.833 61.5299ZM55.2864 62.471C55.2864 62.7206 55.3855 62.96 55.562 63.1365C55.7385 63.313 55.9779 63.4121 56.2275 63.4121H58.9173C59.1669 63.4121 59.4063 63.313 59.5828 63.1365C59.7593 62.96 59.8584 62.7206 59.8584 62.471C59.8584 62.2214 59.7593 61.982 59.5828 61.8055C59.4063 61.629 59.1669 61.5299 58.9173 61.5299H56.2275C55.9779 61.5299 55.7385 61.629 55.562 61.8055C55.3855 61.982 55.2864 62.2214 55.2864 62.471Z" fill="white"/>
<path d="M98.2341 39.8838H58.7065C57.6684 39.8838 56.8242 40.728 56.8242 41.7661V56.8242H41.7661C40.728 56.8242 39.8838 57.6684 39.8838 58.7065V98.2341C39.8838 99.2722 40.728 100.116 41.7661 100.116H81.2937C82.3317 100.116 83.1759 99.2722 83.1759 98.2341V83.1759H98.2341C99.2722 83.1759 100.116 82.3317 100.116 81.2937V41.7661C100.116 40.728 99.2722 39.8838 98.2341 39.8838ZM81.2937 98.2341H41.7661V68.1178H81.2937V98.2341ZM81.2937 66.2355H41.7661V58.7065L81.2937 58.7036V66.2355ZM98.2341 81.2937H83.1759V58.7065C83.1759 57.6684 82.3317 56.8242 81.2937 56.8242H58.7065V51.1774H98.2341V81.2937ZM98.2341 49.2951H58.7065V41.7661H98.2341V49.2951Z" fill="white"/>
</g>
</g>
</svg>
