<svg width="140" height="140" viewBox="0 0 140 140" fill="none" xmlns="http://www.w3.org/2000/svg">
<g id="Group 4">
<ellipse id="Ellipse 11" cx="69.593" cy="70" rx="53.314" ry="52.907" fill="#245887"/>
<circle id="Ellipse 12" cx="70" cy="70" r="69" stroke="black" stroke-width="2"/>
<g id="testing">
<path d="M43.6483 91.0768H62.9729C65.1062 91.0768 66.7375 89.4446 66.7375 87.3103C66.7375 74.3786 66.7375 65.0879 66.7375 52.6585C66.7375 50.5241 65.1062 48.892 62.9729 48.892H43.6483C41.5151 48.892 39.8838 50.5241 39.8838 52.6585C39.8838 65.0879 39.8838 74.3786 39.8838 87.3103C39.8838 89.4446 41.5151 91.0768 43.6483 91.0768ZM42.3935 52.6585C42.3935 51.9052 42.8954 51.403 43.6483 51.403H62.9729C63.7258 51.403 64.2278 51.9052 64.2278 52.6585V57.1783H42.3935V52.6585ZM42.3935 59.5637H64.2278V87.3103C64.2278 88.0636 63.7258 88.5658 62.9729 88.5658H43.6483C42.8954 88.5658 42.3935 88.0636 42.3935 87.3103V59.5637ZM73.2627 52.6585C73.2627 65.0879 73.2627 74.3786 73.2627 87.3103C73.2627 89.4446 74.894 91.0768 77.0272 91.0768H96.3518C98.4851 91.0768 100.116 89.4446 100.116 87.3103V52.6585C100.116 50.5241 98.4851 48.892 96.3518 48.892H77.0272C74.894 48.892 73.2627 50.5241 73.2627 52.6585ZM97.6067 87.3103C97.6067 88.0636 97.1047 88.5658 96.3518 88.5658H77.0272C76.2743 88.5658 75.7724 88.0636 75.7724 87.3103V59.5637H97.6067V87.3103ZM97.6067 52.6585V57.1783H75.7724V52.6585C75.7724 51.9052 76.2743 51.403 77.0272 51.403H96.3518C97.1047 51.403 97.6067 51.9052 97.6067 52.6585Z" fill="white"/>
<path d="M50.048 73.3742H50.4245C50.6755 73.3742 50.8009 73.2487 51.0519 73.1231C51.1774 72.9976 51.3029 72.872 51.4284 72.6209L51.8048 71.2399C51.8048 71.1143 51.9303 71.1143 51.9303 71.1143H54.8164C54.9419 71.1143 54.9419 71.1143 54.9419 71.2399L55.3184 72.6209C55.3184 72.872 55.4439 72.9976 55.6948 73.1231C55.9458 73.2487 56.0713 73.3742 56.1968 73.3742H56.6987C56.8242 73.3742 57.0752 73.2487 57.0752 73.1231C57.2006 72.9976 57.2007 72.872 57.2007 72.6209L54.5655 64.7113C54.44 64.4602 54.44 64.3346 54.189 64.2091C54.0635 64.0835 53.8126 63.958 53.5616 63.958H53.0597C52.8087 63.958 52.6832 63.958 52.4322 64.2091C52.3068 64.3346 52.1813 64.4602 52.0558 64.7113L49.4206 72.6209C49.4206 72.7465 49.4206 72.9976 49.5461 73.1231C49.6716 73.2487 49.7971 73.3742 50.048 73.3742ZM53.3106 65.7157L54.44 69.7333C54.44 69.7333 54.44 69.7333 54.44 69.8588C54.44 69.8588 54.44 69.8588 54.3145 69.8588H52.1813C52.1813 69.8588 52.1813 69.8588 52.0558 69.8588C52.0558 69.8588 52.0558 69.8588 52.0558 69.7333L53.3106 65.7157ZM84.1798 73.3742C84.8072 73.4998 85.4347 73.4998 86.0621 73.4998C87.3169 73.4998 88.3208 73.2487 88.9482 72.7465C89.5756 72.2443 89.8266 71.6165 89.8266 70.6121C89.8266 69.9844 89.5756 69.4822 89.1992 69.1055C88.8227 68.7289 88.3208 68.4778 87.5679 68.3522C88.0698 68.2267 88.5718 67.9756 88.9482 67.5989C89.3247 67.2223 89.4502 66.7201 89.4502 66.2179C89.4502 64.7113 88.3208 63.958 85.9366 63.958C85.3092 63.958 84.8072 63.958 84.1798 64.0835C83.9288 64.0835 83.8034 64.2091 83.6779 64.3346C83.5524 64.4602 83.4269 64.7113 83.4269 64.8368V72.4954C83.4269 72.7465 83.5524 72.872 83.6779 72.9976C83.8034 73.2487 84.0543 73.3742 84.1798 73.3742ZM85.1837 65.5901C85.1837 65.4646 85.1837 65.4646 85.3092 65.4646C85.5602 65.4646 85.8111 65.4646 86.0621 65.4646C86.6895 65.4646 87.1914 65.5901 87.4424 65.7157C87.6934 65.9668 87.8189 66.2179 87.8189 66.5945C87.8189 66.9712 87.6934 67.3478 87.3169 67.5989C86.9405 67.85 86.4385 67.9756 85.5602 67.9756H85.1837C85.0582 67.9756 85.0582 67.9756 85.0582 67.85V65.5901H85.1837ZM85.1837 69.2311L85.6856 69.1055C86.564 69.1055 87.1914 69.2311 87.5679 69.4822C87.9444 69.7333 88.0698 70.1099 88.0698 70.4866C88.0698 70.9888 87.9444 71.3654 87.5679 71.6165C87.1914 71.8676 86.6895 71.9932 86.0621 71.9932C85.8111 71.9932 85.5601 71.9932 85.1837 71.8676C85.0582 71.8676 85.0582 71.8676 85.0582 71.7421V69.2311H85.1837ZM86.0621 44.4977C76.2743 38.3458 63.7258 38.3458 53.9381 44.4977C53.3106 44.8744 53.1851 45.6277 53.5616 46.2554C53.9381 46.8832 54.691 47.0087 55.3184 46.6321C64.2278 40.9824 75.7724 40.9824 84.6818 46.6321C85.3092 47.0087 86.0621 46.8832 86.4385 46.2554C86.815 45.6277 86.564 44.8744 86.0621 44.4977ZM53.5616 93.7133C53.1851 94.3411 53.3106 95.0943 53.9381 95.471C58.8319 98.6097 64.4788 100.116 70.0001 100.116C75.5214 100.116 81.1682 98.6097 86.0621 95.471C86.6895 95.0943 86.815 94.3411 86.4385 93.7133C86.0621 93.0856 85.3092 92.96 84.6818 93.3367C75.7724 98.9864 64.2278 98.9864 55.3184 93.3367C54.691 92.96 53.9381 93.2111 53.5616 93.7133ZM45.5306 79.024H61.2162C61.9691 79.024 62.471 78.5218 62.471 77.7685C62.471 77.0152 61.9691 76.513 61.2162 76.513H45.5306C44.7777 76.513 44.2757 77.0152 44.2757 77.7685C44.2757 78.5218 44.7777 79.024 45.5306 79.024ZM45.5306 84.2971H61.2162C61.9691 84.2971 62.471 83.7949 62.471 83.0416C62.471 82.2883 61.9691 81.7861 61.2162 81.7861H45.5306C44.7777 81.7861 44.2757 82.2883 44.2757 83.0416C44.2757 83.7949 44.7777 84.2971 45.5306 84.2971ZM78.784 79.024H94.4695C95.2225 79.024 95.7244 78.5218 95.7244 77.7685C95.7244 77.0152 95.2225 76.513 94.4695 76.513H78.784C78.0311 76.513 77.5291 77.0152 77.5291 77.7685C77.5291 78.5218 78.1566 79.024 78.784 79.024ZM78.784 84.2971H94.4695C95.2225 84.2971 95.7244 83.7949 95.7244 83.0416C95.7244 82.2883 95.2225 81.7861 94.4695 81.7861H78.784C78.0311 81.7861 77.5291 82.2883 77.5291 83.0416C77.5291 83.7949 78.1566 84.2971 78.784 84.2971ZM45.7816 52.784H45.1541C44.4012 52.784 43.8993 53.2862 43.8993 54.0395C43.8993 54.7928 44.4012 55.295 45.1541 55.295H45.7816C46.5345 55.295 47.0364 54.7928 47.0364 54.0395C47.0364 53.2862 46.5345 52.784 45.7816 52.784ZM49.7971 52.784H49.1696C48.4167 52.784 47.9148 53.2862 47.9148 54.0395C47.9148 54.7928 48.4167 55.295 49.1696 55.295H49.7971C50.55 55.295 51.0519 54.7928 51.0519 54.0395C51.0519 53.2862 50.4245 52.784 49.7971 52.784ZM78.6585 55.5461H79.2859C80.0388 55.5461 80.5408 55.0439 80.5408 54.2906C80.5408 53.5373 80.0388 53.0351 79.2859 53.0351H78.6585C77.9056 53.0351 77.4037 53.5373 77.4037 54.2906C77.4037 55.0439 77.9056 55.5461 78.6585 55.5461ZM82.674 55.5461H83.3014C84.0543 55.5461 84.5563 55.0439 84.5563 54.2906C84.5563 53.5373 84.0543 53.0351 83.3014 53.0351H82.674C81.9211 53.0351 81.4192 53.5373 81.4192 54.2906C81.4192 55.0439 81.9211 55.5461 82.674 55.5461Z" fill="white"/>
</g>
</g>
</svg>
