<svg width="140" height="140" viewBox="0 0 140 140" fill="none" xmlns="http://www.w3.org/2000/svg">
<g id="Group 5">
<circle id="Ellipse 13" cx="70" cy="70" r="52.907" fill="#245887"/>
<circle id="Ellipse 14" cx="70" cy="70" r="69" stroke="black" stroke-width="2"/>
<path id="deployment" d="M56.0588 53.891L56.6484 53.0381L56.0588 52.1852C55.8167 51.8348 55.6763 51.4183 55.6763 50.9687V42.6912C55.6763 41.504 56.6267 40.5698 57.7494 40.5698H82.2508C83.3734 40.5698 84.3239 41.504 84.3239 42.6912V50.9687C84.3239 51.4182 84.1835 51.8348 83.9413 52.1852L83.3518 53.0381L83.9413 53.891C84.1835 54.2413 84.3239 54.6579 84.3239 55.1075V63.385C84.3239 64.5722 83.3734 65.5064 82.2508 65.5064H57.7494C56.6267 65.5064 55.6763 64.5722 55.6763 63.385V55.1075C55.6763 54.6579 55.8167 54.2413 56.0588 53.891ZM43.4569 86.096H96.5432C97.6659 86.096 98.6163 87.0302 98.6163 88.2174V92.3562C98.6163 95.825 95.8335 98.6163 92.4597 98.6163H47.5405C44.1667 98.6163 41.3838 95.825 41.3838 92.3562V88.2174C41.3838 87.0302 42.3343 86.096 43.4569 86.096ZM61.8329 95.4082H78.1672C79.86 95.4082 81.1985 94.0224 81.1985 92.3562C81.1985 90.69 79.86 89.3042 78.1672 89.3042H61.8329C60.1402 89.3042 58.8016 90.69 58.8016 92.3562C58.8016 94.0224 60.1402 95.4082 61.8329 95.4082ZM90.1229 53.0381C90.1274 53.0208 90.1319 53.0034 90.1363 52.9861H92.4597C93.5725 52.9861 94.5328 53.9302 94.5328 55.1075V79.992H94.4701V55.1075C94.4701 54.0084 93.5929 53.0901 92.4597 53.0901H90.1363C90.1319 53.0728 90.1274 53.0554 90.1229 53.0381ZM45.4674 55.1075C45.4674 53.9302 46.4277 52.9861 47.5405 52.9861H49.8638C49.8682 53.0034 49.8727 53.0208 49.8772 53.0381C49.8727 53.0554 49.8682 53.0728 49.8638 53.0901H47.5405C46.4073 53.0901 45.53 54.0083 45.53 55.1075V79.992H45.4674V55.1075ZM61.8329 62.2982H70.0001C71.6928 62.2982 73.0314 60.9124 73.0314 59.2462C73.0314 57.58 71.6928 56.1942 70.0001 56.1942H61.8329C60.1402 56.1942 58.8016 57.58 58.8016 59.2462C58.8016 60.9124 60.1402 62.2982 61.8329 62.2982ZM61.8329 49.882H70.0001C71.6928 49.882 73.0314 48.4962 73.0314 46.83C73.0314 45.1637 71.6928 43.7779 70.0001 43.7779H61.8329C60.1402 43.7779 58.8016 45.1637 58.8016 46.83C58.8016 48.4962 60.1402 49.882 61.8329 49.882ZM73.0941 59.2462C73.0941 60.9127 74.4324 62.2982 76.1254 62.2982C77.8184 62.2982 79.1567 60.9127 79.1567 59.2462C79.1567 57.5795 77.8183 56.1942 76.1254 56.1942C74.4325 56.1942 73.0941 57.5795 73.0941 59.2462ZM73.0941 46.83C73.0941 48.4964 74.4324 49.882 76.1254 49.882C77.8184 49.882 79.1567 48.4964 79.1567 46.83C79.1567 45.1633 77.8183 43.7779 76.1254 43.7779C74.4325 43.7779 73.0941 45.1633 73.0941 46.83Z" stroke="white" stroke-width="3"/>
</g>
</svg>
