<svg width="140" height="140" viewBox="0 0 140 140" fill="none" xmlns="http://www.w3.org/2000/svg">
<g id="Group 6">
<circle id="Ellipse 13" cx="70" cy="70" r="52.907" fill="#245887"/>
<circle id="Ellipse 14" cx="70" cy="70" r="69" stroke="black" stroke-width="2"/>
<path id="Maintenance" d="M88.8908 39.8838C88.0068 39.8838 87.1269 40.0063 86.2776 40.2349V40.2308C84.5524 40.6896 82.979 41.5959 81.7167 42.8581C79.2464 45.3282 78.5013 48.7537 79.1096 51.9444L69.6511 61.3982C69.0454 60.909 68.2921 60.6392 67.5136 60.6326C66.6357 60.6326 65.7476 60.9715 65.078 61.6411L64.0817 62.6373L50.9422 49.5009L51.5097 48.9354C51.6212 48.8231 51.705 48.6865 51.7546 48.5363C51.8042 48.3861 51.8182 48.2264 51.7956 48.0698L51.3689 45.069C51.3494 44.9319 51.3023 44.8002 51.2303 44.682C51.1584 44.5637 51.0631 44.4613 50.9503 44.381L44.9461 40.0941C44.7795 39.9733 44.5802 39.9057 44.3745 39.9001V39.9042C44.2372 39.9015 44.1009 39.9265 43.9736 39.9777C43.8462 40.0289 43.7305 40.1053 43.6334 40.2022L40.1995 43.6318C40.0291 43.803 39.9249 44.029 39.9055 44.2697C39.8861 44.5104 39.9526 44.7502 40.0933 44.9465L44.3806 50.9523C44.4604 51.0646 44.5622 51.1596 44.6797 51.2315C44.7973 51.3034 44.9282 51.3508 45.0645 51.3708L48.0677 51.7974C48.2249 51.8208 48.3854 51.8071 48.5363 51.7575C48.6873 51.7079 48.8247 51.6237 48.9374 51.5116L49.4988 50.9441L62.6383 64.0826L61.6441 65.0747C61.0513 65.6754 60.6992 66.4724 60.6545 67.315C60.6097 68.1576 60.8753 68.9875 61.4011 69.6475L51.9385 79.1094C48.7495 78.5031 45.3258 79.2482 42.8555 81.7163C41.5947 82.98 40.6886 84.5531 40.2281 86.2777C39.7677 88.0023 39.769 89.8177 40.2321 91.5416C40.2786 91.7144 40.3698 91.872 40.4964 91.9985C40.6231 92.125 40.7808 92.2159 40.9537 92.2622C41.1266 92.3086 41.3086 92.3086 41.4815 92.2624C41.6544 92.2162 41.8122 92.1253 41.9389 91.9988L47.0836 86.8525L50.8605 88.112L52.114 91.8886L46.9693 97.0329C46.8434 97.16 46.7531 97.3178 46.7074 97.4907C46.6617 97.6636 46.6623 97.8455 46.709 98.0181C46.7557 98.1907 46.847 98.3481 46.9736 98.4743C47.1003 98.6006 47.2579 98.6913 47.4307 98.7375C49.1545 99.1989 50.9693 99.1995 52.6934 98.7391C54.4175 98.2788 55.9904 97.3736 57.2547 96.1143C59.725 93.6442 60.4702 90.2187 59.8618 87.028L67.5789 79.3115L87.38 99.1131C88.0281 99.7558 88.9039 100.116 89.8166 100.116C90.7294 100.116 91.6051 99.7558 92.2532 99.1131L99.1129 92.2499C99.7557 91.6015 100.116 90.7255 100.116 89.8125C100.116 88.8995 99.7557 88.0235 99.1129 87.3751L79.3138 67.5775L87.0289 59.863C90.2198 60.4714 93.6415 59.7263 96.1138 57.2562C96.1132 57.2562 96.1145 57.2562 96.1138 57.2562C97.3746 55.9925 98.2828 54.4194 98.7433 52.6948C99.2038 50.9702 99.2024 49.1548 98.7393 47.4309C98.6928 47.258 98.6016 47.1005 98.475 46.974C98.3483 46.8475 98.1907 46.7565 98.0178 46.7102C97.8449 46.6639 97.6628 46.6638 97.4899 46.71C97.317 46.7563 97.1592 46.8472 97.0325 46.9736L91.8878 52.1179L88.1129 50.8604L86.8533 47.0838L92.0021 41.9395C92.128 41.8126 92.2184 41.6549 92.2642 41.4821C92.31 41.3093 92.3097 41.1276 92.2631 40.955C92.2166 40.7824 92.1256 40.6251 91.9992 40.4987C91.8728 40.3723 91.7154 40.2814 91.5428 40.2349C90.6781 40.0016 89.7864 39.8835 88.8908 39.8838ZM87.819 42.1334C88.1619 42.1538 88.507 42.2008 88.852 42.2008L84.9628 46.0876C84.8293 46.2221 84.7358 46.3911 84.6929 46.5757C84.65 46.7603 84.6593 46.9532 84.7199 47.1328L86.3388 51.9893C86.3892 52.1397 86.4738 52.2764 86.5862 52.3883C86.6985 52.5003 86.8354 52.5846 86.986 52.6344L91.8408 54.2532C92.0208 54.3133 92.214 54.322 92.3986 54.2783C92.5832 54.2347 92.7521 54.1405 92.8861 54.0062L96.7692 50.1235C96.7508 52.2241 96.1935 54.288 94.6684 55.8129C92.5411 57.9359 89.5522 58.6035 86.837 57.8849C86.6639 57.8393 86.4819 57.84 86.3092 57.8869C86.1364 57.9339 85.9791 58.0254 85.8529 58.1523L58.1509 85.8522C58.0244 85.9785 57.9332 86.136 57.8866 86.3087C57.8401 86.4813 57.8397 86.6632 57.8855 86.8361C58.6021 89.5512 57.9366 92.5398 55.8113 94.667C54.2822 96.1898 52.2222 96.7492 50.1215 96.7696L54.0045 92.8848C54.1388 92.7508 54.233 92.5819 54.2766 92.3973C54.3203 92.2127 54.3116 92.0196 54.2516 91.8396L52.6326 86.9831C52.5825 86.8329 52.4981 86.6964 52.3861 86.5845C52.2741 86.4725 52.1377 86.3881 51.9875 86.338L47.1306 84.7192C46.9506 84.6592 46.7575 84.6505 46.5728 84.6941C46.3882 84.7377 46.2194 84.832 46.0853 84.9662L42.1982 88.853C42.2145 86.7504 42.7718 84.6886 44.301 83.1596C46.4262 81.0344 49.4171 80.3689 52.1345 81.0875C52.3069 81.1324 52.4881 81.1313 52.6601 81.0844C52.832 81.0374 52.9886 80.9463 53.1144 80.8201L80.8225 53.1203C80.9491 52.9939 81.0402 52.8365 81.0868 52.6638C81.1334 52.4911 81.1338 52.3092 81.0879 52.1363C80.3713 49.4192 81.0348 46.4306 83.1621 44.3014C84.1709 43.2914 85.4288 42.566 86.8084 42.1987C87.1371 42.113 87.476 42.111 87.819 42.1334ZM44.4623 42.2559L49.4069 45.7875L49.703 47.8534L48.7781 48.7782L47.8533 49.705L45.7872 49.409L42.2553 44.4647L44.4623 42.2559ZM67.5136 62.674C67.7524 62.674 67.9749 62.7516 68.1852 62.87L62.8731 68.1797C62.7167 67.919 62.6528 67.6132 62.6917 67.3116C62.7305 67.0101 62.87 66.7305 63.0874 66.518L66.5214 63.0844C66.651 62.9534 66.8057 62.8498 66.9761 62.7797C67.1465 62.7096 67.3293 62.6743 67.5136 62.6761V62.674ZM77.8704 69.0228L97.6715 88.8183C97.8048 88.9474 97.9107 89.1019 97.9831 89.2727C98.0554 89.4434 98.0927 89.627 98.0927 89.8125C98.0927 89.998 98.0554 90.1815 97.9831 90.3523C97.9107 90.5231 97.8048 90.6776 97.6715 90.8067L90.8098 97.6699C90.6813 97.8035 90.527 97.9099 90.3564 97.9825C90.1857 98.0552 90.0021 98.0926 89.8166 98.0926C89.6311 98.0926 89.4476 98.0552 89.2769 97.9825C89.1062 97.9099 88.952 97.8035 88.8234 97.6699L69.0202 77.8682L71.0067 75.884L90.8098 95.6836L92.2532 94.2403L72.4501 74.4387L74.4406 72.4503L94.2438 92.252L95.6851 90.8067L75.884 71.0071L77.8704 69.0208V69.0228Z" fill="white"/>
</g>
</svg>
